<svg id="Layer_1" data-name="Layer 1" xmlns="http://www.w3.org/2000/svg" xmlns:xlink="http://www.w3.org/1999/xlink" viewBox="0 0 370.37 273.02"><defs><clipPath id="clip-path" transform="translate(-12.3 -9.7)"><rect x="36.33" y="34.56" width="334.8" height="217.44" style="fill:none"/></clipPath></defs><title>kotlin_adoption_instance_hours</title><g id="patch_2" data-name="patch 2"><path d="M36.33,252h334.8V34.56H36.33Z" transform="translate(-12.3 -9.7)" style="fill:#fff"/></g><g id="matplotlib.axis_1" data-name="matplotlib.axis 1"><g id="xtick_1" data-name="xtick 1"><g id="line2d_1" data-name="line2d 1"><path id="mde64e9454c" d="M36.33,252v3.5" transform="translate(-12.3 -9.7)" style="fill:#21242c;stroke:#21242c;stroke-linejoin:round;stroke-width:0.800000011920929px"/></g></g><g id="xtick_2" data-name="xtick 2"><g id="line2d_2" data-name="line2d 2"><path id="mde64e9454c-2" data-name="mde64e9454c" d="M192.57,252v3.5" transform="translate(-12.3 -9.7)" style="fill:#21242c;stroke:#21242c;stroke-linejoin:round;stroke-width:0.800000011920929px"/></g></g><g id="xtick_3" data-name="xtick 3"><g id="line2d_3" data-name="line2d 3"><path id="mde64e9454c-3" data-name="mde64e9454c" d="M371.13,252v3.5" transform="translate(-12.3 -9.7)" style="fill:#21242c;stroke:#21242c;stroke-linejoin:round;stroke-width:0.800000011920929px"/></g></g></g><g style="clip-path:url(#clip-path)"><path d="M36.33,86.08,58.65,67.53,81,98.1l22.32-41.47,22.32-12,22.32,33.95,22.32-4.1,22.32,155.47,22.32,15.4,22.32-.57,22.32.4,22.32-6.55,22.32-29.33,22.32,7.32,22.32,8.68,22.32,2.64" transform="translate(-12.3 -9.7)" style="fill:none;stroke:#00a60e;stroke-linecap:square;stroke-linejoin:round;stroke-width:1.5px"/></g><g id="patch_3" data-name="patch 3"><path d="M36.33,252V34.56" transform="translate(-12.3 -9.7)" style="fill:none;stroke:#21242c;stroke-linecap:square;stroke-width:0.800000011920929px"/></g><g id="patch_4" data-name="patch 4"><path d="M36.33,252h334.8" transform="translate(-12.3 -9.7)" style="fill:none;stroke:#21242c;stroke-linecap:square;stroke-width:0.800000011920929px"/></g><text transform="translate(0 263.63)" style="font-size:12px;fill:#21242c;font-family:Lato-Regular, Lato"><tspan style="letter-spacing:-0.034993489583333336em">F</tspan><tspan x="6.37" y="0">ebruary</tspan></text><text transform="translate(161.09 256.43)" style="font-size:12px;fill:#21242c;font-family:Lato-Regular, Lato">Rollout<tspan x="-9.65" y="14.4">(March 25)</tspan></text><text transform="translate(347.29 263.63)" style="font-size:12px;fill:#21242c;font-family:Lato-Regular, Lato">M<tspan x="11.04" y="0" style="letter-spacing:-0.016031901041666668em">a</tspan><tspan x="16.93" y="0" style="letter-spacing:0.00008138020833333333em">y</tspan></text><g id="xtick_1-2" data-name="xtick 1"><g id="line2d_1-2" data-name="line2d 1"><path id="mde64e9454c-4" data-name="mde64e9454c" d="M32.83,252h3.5" transform="translate(-12.3 -9.7)" style="stroke:#21242c;stroke-linejoin:round;stroke-width:0.800000011920929px"/></g></g><text transform="translate(15.96 244.35)" style="font-size:6px;font-family:Lato-Regular, Lato">0</text><text transform="translate(100.56 10.3)" style="font-size:12px;fill:#21242c;font-family:Lato-Regular, Lato">Ser<tspan x="17.48" y="0" style="letter-spacing:-0.013020833333333334em">v</tspan><tspan x="23.47" y="0" style="letter-spacing:0.000040690104166666664em">er hours for the co</tspan><tspan x="119.18" y="0" style="letter-spacing:-0.015950520833333332em">n</tspan><tspan x="125.66" y="0" style="letter-spacing:-0.013020833333333334em">v</tspan><tspan x="131.65" y="0" style="letter-spacing:0.000040690104166666664em">erted API</tspan></text></svg>