<svg data-name="Layer 1" xmlns="http://www.w3.org/2000/svg" viewBox="0 0 370.37 273.02"><defs><clipPath id="a" transform="translate(-12.3 -9.7)"><path fill="none" d="M36.33 34.56h334.8V252H36.33z"/></clipPath></defs><path d="M24.03 242.3h334.8V24.86H24.03z" fill="#fff" data-name="patch 2"/><g data-name="matplotlib.axis 1"><g data-name="xtick 1"><path d="M24.03 242.3v3.5" fill="#21242c" stroke="#21242c" stroke-linejoin="round" stroke-width=".8" data-name="line2d 1"/></g><g data-name="xtick 2"><g data-name="line2d 2"><path data-name="mde64e9454c" d="M180.27 242.3v3.5" fill="#21242c" stroke="#21242c" stroke-linejoin="round" stroke-width=".8"/></g></g><g data-name="xtick 3"><g data-name="line2d 3"><path data-name="mde64e9454c" d="M358.83 242.3v3.5" fill="#21242c" stroke="#21242c" stroke-linejoin="round" stroke-width=".8"/></g></g></g><g clip-path="url(#a)"><path d="M24.03 76.38l22.32-18.55L68.7 88.4l22.32-41.47 22.32-12 22.32 33.95 22.32-4.1 22.32 155.47 22.32 15.4 22.32-.57 22.32.4 22.32-6.55 22.32-29.33 22.32 7.32 22.32 8.68 22.32 2.64" fill="none" stroke="#00a60e" stroke-linecap="square" stroke-linejoin="round" stroke-width="1.5"/></g><path d="M24.03 242.3V24.86" fill="none" stroke="#21242c" stroke-linecap="square" stroke-width=".8" data-name="patch 3"/><path d="M24.03 242.3h334.8" fill="none" stroke="#21242c" stroke-linecap="square" stroke-width=".8" data-name="patch 4"/><text transform="translate(0 263.63)" font-size="12" fill="#21242c" font-family="Lato-Regular,Lato"><tspan letter-spacing="-.035em">F</tspan><tspan x="6.37" y="0">ebruary</tspan></text><text transform="translate(161.09 256.43)" font-size="12" fill="#21242c" font-family="Lato-Regular,Lato">Rollout<tspan x="-9.65" y="14.4">(March 25)</tspan></text><text transform="translate(347.29 263.63)" font-size="12" fill="#21242c" font-family="Lato-Regular,Lato">M<tspan x="11.04" y="0" letter-spacing="-.016em">a</tspan><tspan x="16.93" y="0" letter-spacing="0em">y</tspan></text><g data-name="xtick 1"><g data-name="line2d 1"><path data-name="mde64e9454c" d="M20.53 242.3h3.5" stroke="#21242c" stroke-linejoin="round" stroke-width=".8"/></g></g><text transform="translate(15.96 244.35)" font-size="6" font-family="Lato-Regular,Lato">0</text><text transform="translate(100.56 10.3)" font-size="12" fill="#21242c" font-family="Lato-Regular,Lato">Ser<tspan x="17.48" y="0" letter-spacing="-.013em">v</tspan><tspan x="23.47" y="0" letter-spacing="0em">er hours for the co</tspan><tspan x="119.18" y="0" letter-spacing="-.016em">n</tspan><tspan x="125.66" y="0" letter-spacing="-.013em">v</tspan><tspan x="131.65" y="0" letter-spacing="0em">erted API</tspan></text></svg>